<?xml version="1.0" encoding="utf-8"?>
<!-- Generator: Adobe Illustrator 24.1.1, SVG Export Plug-In . SVG Version: 6.00 Build 0)  -->
<svg version="1.1" id="Layer_1" xmlns="http://www.w3.org/2000/svg" xmlns:xlink="http://www.w3.org/1999/xlink" x="0px" y="0px"
	 viewBox="0 0 375 375" style="enable-background:new 0 0 375 375;" xml:space="preserve">
<style type="text/css">
	.st0{clip-path:url(#SVGID_2_);}
	.st1{fill:#25214B;}
	.st2{clip-path:url(#SVGID_4_);}
	.st3{fill:#851CFC;}
	.st4{fill:#630343;}
	.st5{fill:#6FC902;}
</style>
<g id="surface1">
	<g>
		<g>
			<g>
				<defs>
					<rect id="SVGID_1_" x="169.6" y="102.4" width="94" height="101.8"/>
				</defs>
				<clipPath id="SVGID_2_">
					<use xlink:href="#SVGID_1_"  style="overflow:visible;"/>
				</clipPath>
				<g class="st0">
					<path class="st1" d="M179.3,130.2c0.9-1.1,1.8-2.1,2.9-3.2c5.6-5.6,12.4-9.1,19.5-10.8v-12.7c-9.4,1.9-18.4,6.5-25.7,13.8
						c-1.6,1.6-3,3.2-4.3,4.9c1.1,1,2.2,2,3.3,3C176.5,126.8,178,128.5,179.3,130.2 M211.9,203.9c-11.6,0-23.2-3.9-32.6-11.8
						c14.2-17,12.5-25.2-3.8-35.1c1.2-2,12.5-20.7,14.2-22.4c5.8-5.7,13.3-8.6,20.9-8.6c7.6,0,15.1,2.9,20.9,8.6
						c11.5,11.5,11.5,30.1,0,41.6c-5.8,5.7-13.3,8.6-20.9,8.6v10.7c10.3,0,20.6-3.9,28.4-11.8c15.7-15.7,15.7-41.1,0-56.8
						c-7.4-7.4-16.9-11.3-26.6-11.7v-12.7c12.8,0.1,25.6,5.1,35.4,14.9c19.9,19.8,19.9,51.9,0,71.7
						C237.9,199,224.9,203.9,211.9,203.9"/>
				</g>
			</g>
		</g>
	</g>
	<g>
		<g>
			<g>
				<defs>
					<rect id="SVGID_3_" x="87.6" y="110.2" width="93" height="101.4"/>
				</defs>
				<clipPath id="SVGID_4_">
					<use xlink:href="#SVGID_3_"  style="overflow:visible;"/>
				</clipPath>
				<g class="st2">
					<path class="st3" d="M149.3,210.8v-12.7c7.1-1.6,13.9-5.2,19.5-10.8c1-1,2-2.1,2.9-3.2c1.3,1.7,2.8,3.3,4.3,4.9
						c1.1,1.1,2.2,2.1,3.3,3c-1.3,1.7-2.8,3.3-4.3,4.9C167.6,204.3,158.7,208.9,149.3,210.8 M138.5,211.8c-4.9-0.1-14-0.9-23.7-6.1
						c-0.8-0.4-6.9-3.9-11.7-8.8c-19.9-19.8-19.9-51.9,0-71.7c9.9-9.8,22.9-14.8,35.9-14.8c11.6,0,23.2,4,32.6,11.8
						c-14.7,14.8-12.5,22.9,3.8,34.8c-1.2,2-12.5,21-14.2,22.7c-5.8,5.8-13.3,8.6-20.9,8.6c-7.6,0-15.1-2.9-20.9-8.6
						c-11.5-11.5-11.5-30.1,0-41.6c5.8-5.7,13.3-8.6,20.9-8.6c0-3.6,0-7.1,0-10.7c-3.9,0-11.3,0.6-19.1,4.8c-0.8,0.4-5.5,3.1-9.4,7
						c-15.7,15.7-15.7,41.1,0,56.8c3.8,3.8,8.9,6.7,9.1,6.8c7.1,3.9,13.8,4.7,17.5,4.9C138.5,203.3,138.5,207.6,138.5,211.8z"/>
				</g>
			</g>
		</g>
	</g>
	<g>
		<g transform="translate(108.711824, 247.212713)">
			<path class="st1" d="M7.7-16.1L7.7-16.1c0.2-3.5-2.2-5.9-9-5.9h-4.4c-0.4,0-0.6,0.3-0.6,0.7v16.8c0,0.4,0.2,0.7,0.6,0.7H0
				c6.4,0,8.8-1.6,8.8-4.9c0-2.8-3.2-4.2-6.8-4.2L7.7-16.1z M-1.3-21.7c3.8,0,5,1.5,5,4.1c0,1.2-0.8,4.6-4.2,4.6h-1.1v-8.8h0.3
				V-21.7z M-0.5-12.6c2.9,0,4.4,1.6,4.4,4.2c0,2.1-1.5,4.1-4.4,4.1h-1.1v-8.3C-1.6-12.6-0.5-12.6-0.5-12.6z"/>
		</g>
	</g>
	<g>
		<g transform="translate(126.230424, 247.212713)">
			<path class="st1" d="M0.1-3.6c4.1,0,5.3-2,5.3-6.3v-7.6c0-0.4-0.2-0.7-0.6-0.7H1.9c-0.1,0-0.2,0.1-0.2,0.2v3c0,0.2,0,0.3,0.2,0.5
				l3.2,4.2v0.4c0,4.4-1.6,6-4.5,6H0.2C-1.2-3.9-2-5-2-9.9v-7.6c0-0.4-0.2-0.7-0.6-0.7h-3.8c-0.4,0-0.6,0.3-0.6,0.7v7.6
				C-7-5.6-5.1-3.6,0.1-3.6z"/>
		</g>
	</g>
	<g>
		<g transform="translate(140.889878, 247.212713)">
			<path class="st1" d="M-2.8-17.5c-0.2-0.4-0.5-0.7-1.1-0.7h-3.7c-0.4,0-0.6,0.3-0.4,0.7l4.5,8v5c0,0.4,0.2,0.7,0.6,0.7h3.3
				C0.8-3.8,1-4.1,1-4.5v-4.9l4.5-8.1c0.1-0.3,0-0.7-0.4-0.7H1.2c-0.5,0-0.5,0.3-0.3,0.7l2.1,4l-1.9,3.2L-2.8-17.5z"/>
		</g>
	</g>
	<g>
		<g transform="translate(154.403228, 247.212713)">
			<path class="st3" d="M2.5-22.4c-6.7,0-9.9,3.1-9.9,9.4s3.2,9.4,9.9,9.4s9.9-3.1,9.9-9.4S9.2-22.4,2.5-22.4z M2.5-22.1
				c2.9,0,4.9,5.1,4.9,9.1S5.3-3.8,2.5-3.8S-2.4-8.9-2.4-13S-0.4-22.1,2.5-22.1z"/>
		</g>
	</g>
	<g>
		<g transform="translate(175.664698, 247.212713)">
			<path class="st3" d="M-7.2-18.2c-0.1,0-0.2,0.1-0.2,0.2v0.1c0,0.1,0,0.2,0.2,0.4l0.9,1.2v11.8c0,0.4,0.2,0.7,0.6,0.7H-2
				c0.1,0,0.2-0.1,0.2-0.2v-0.1c0-0.2,0-0.3-0.2-0.5l-3.9-5.1v-6L2.7-4.4c0.4,0.4,0.7,0.7,1,0.7h1c0.4,0,0.6-0.3,0.6-0.7v-13
				c0-0.4-0.2-0.7-0.6-0.7h-3c-0.1,0-0.2,0.1-0.2,0.2v0.1c0,0.2,0,0.3,0.2,0.5l3.2,4.2v4.7H4.8l-7-9.1c-0.3-0.4-0.6-0.5-1-0.5h-4
				V-18.2z"/>
		</g>
	</g>
	<g>
		<g transform="translate(190.895413, 247.212713)">
			<path class="st1" d="M-7.3-13c0,6.3,3.4,9.4,9.8,9.4l6.1-0.3C9.1-4,9.2-4.2,9.2-4.6V-8c0-0.4-0.1-0.5-0.4-0.6L8.5-8.7
				c-0.1,0-0.2-0.1-0.3-0.1C8-8.8,7.8-8.7,7.6-8.5L2.9-4C0-4-2.3-9-2.3-13s2.3-9,5.2-9l4.7,4.5c0.2,0.2,0.4,0.3,0.6,0.3
				c0.1,0,0.2,0,0.3-0.1l0.3-0.1c0.3-0.1,0.4-0.3,0.4-0.6v-3.4c0-0.4-0.1-0.6-0.6-0.7l-6.1-0.3C-3.9-22.4-7.3-19.3-7.3-13z"/>
		</g>
	</g>
	<g>
		<g transform="translate(209.479687, 247.212713)">
			<path class="st1" d="M7.8-17.5c0-0.4-0.2-0.7-0.6-0.7H3.9c-0.4,0-0.6,0.3-0.6,0.7v6h-5.2v-6c0-0.4-0.2-0.7-0.6-0.7h-3.3
				c-0.4,0-0.6,0.3-0.6,0.7v13c0,0.4,0.2,0.7,0.6,0.7h3.3c0.4,0,0.6-0.3,0.6-0.7v-6.4h5.2v6.4c0,0.4,0.2,0.7,0.6,0.7h3.3
				c0.4,0,0.6-0.3,0.6-0.7V-17.5z"/>
		</g>
	</g>
	<g>
		<g transform="translate(227.232216, 247.212713)">
			<path class="st1" d="M0.9-17.5c-0.2-0.4-0.5-0.7-0.9-0.7h-1.4c-0.4,0-0.7,0.3-0.9,0.7l-5.8,13c-0.1,0.3,0,0.7,0.4,0.7H-4
				c0.5,0,0.8-0.3,0.6-0.7l-1.9-4.3h5.2l1.9,4.3C2-4.1,2.3-3.8,2.7-3.8h3.5c0.4,0,0.5-0.3,0.4-0.7L0.9-17.5z M-0.2-9.2h-5.3l2.6-6
				L-0.2-9.2z"/>
		</g>
	</g>
	<g>
		<g transform="translate(242.125596, 247.212713)">
			<path class="st1" d="M-5.6-18.2c-0.4,0-0.6,0.3-0.6,0.7v13c0,0.4,0.2,0.7,0.6,0.7h3.3c0.4,0,0.6-0.3,0.6-0.7v-13
				c0-0.4-0.2-0.7-0.6-0.7H-5.6z M-6.3-22c0,1.3,1.1,2.4,2.4,2.4s2.4-1.1,2.4-2.4s-1.1-2.4-2.4-2.4S-6.3-23.3-6.3-22z"/>
		</g>
	</g>
	<g>
		<g transform="translate(250.546919, 247.212713)">
			<path class="st1" d="M-7.2-18.2c-0.1,0-0.2,0.1-0.2,0.2v0.1c0,0.1,0,0.2,0.2,0.4l0.9,1.2v11.8c0,0.4,0.2,0.7,0.6,0.7H-2
				c0.1,0,0.2-0.1,0.2-0.2v-0.1c0-0.2,0-0.3-0.2-0.5l-3.9-5.1v-6L2.7-4.4c0.4,0.4,0.7,0.7,1,0.7h1c0.4,0,0.6-0.3,0.6-0.7v-13
				c0-0.4-0.2-0.7-0.6-0.7h-3c-0.1,0-0.2,0.1-0.2,0.2v0.1c0,0.2,0,0.3,0.2,0.5l3.2,4.2v4.7H4.8l-7-9.1c-0.3-0.4-0.6-0.5-1-0.5h-4
				V-18.2z"/>
		</g>
	</g>
</g>
<path class="st4" d="M189.5,159.2"/>
<path class="st4" d="M424.3,142.7"/>
<path class="st5" d="M391.9,171"/>
<path class="st5" d="M404.2,199.6"/>
<path class="st5" d="M398.7,203"/>
<path class="st3" d="M401.1,166.9"/>
<path class="st1" d="M214,263.3"/>
</svg>
